<mxfile modified="2024-02-28T21:14:52.199Z" host="app.diagrams.net" agent="Mozilla/5.0 (Windows NT 10.0; Win64; x64; rv:122.0) Gecko/20100101 Firefox/122.0" etag="39-DIoMBxhSPrn3mdINH" version="23.1.7" type="github">
  <diagram id="l8hXMBHkgcEJcSW0mbfh" name="Page-1">
    <mxGraphModel dx="1434" dy="746" grid="1" gridSize="10" guides="1" tooltips="1" connect="1" arrows="1" fold="1" page="1" pageScale="1" pageWidth="1169" pageHeight="827" math="0" shadow="0">
      <root>
        <mxCell id="0" />
        <mxCell id="1" parent="0" />
        <mxCell id="5lbM_MutUm4mmqYNjp2k-3" value="&lt;div&gt;Home Router&lt;/div&gt;&lt;div&gt;10.10.10.0/24&lt;br&gt;&lt;/div&gt;" style="image;aspect=fixed;perimeter=ellipsePerimeter;html=1;align=center;shadow=0;dashed=0;fontColor=#4277BB;labelBackgroundColor=default;fontSize=12;spacingTop=3;image=img/lib/ibm/vpc/Router.svg;" vertex="1" parent="1">
          <mxGeometry x="240" y="380" width="60" height="60" as="geometry" />
        </mxCell>
        <mxCell id="5lbM_MutUm4mmqYNjp2k-8" style="rounded=0;orthogonalLoop=1;jettySize=auto;html=1;exitX=0.75;exitY=0;exitDx=0;exitDy=0;entryX=0;entryY=0.5;entryDx=0;entryDy=0;" edge="1" parent="1" source="5lbM_MutUm4mmqYNjp2k-4" target="5lbM_MutUm4mmqYNjp2k-5">
          <mxGeometry relative="1" as="geometry" />
        </mxCell>
        <mxCell id="5lbM_MutUm4mmqYNjp2k-4" value="&lt;div&gt;Offsite Router&lt;/div&gt;&lt;div&gt;192.168.10.1/24&lt;br&gt;&lt;/div&gt;" style="image;aspect=fixed;perimeter=ellipsePerimeter;html=1;align=center;shadow=0;dashed=0;fontColor=#4277BB;labelBackgroundColor=default;fontSize=12;spacingTop=3;image=img/lib/ibm/vpc/Router.svg;" vertex="1" parent="1">
          <mxGeometry x="910" y="384" width="60" height="60" as="geometry" />
        </mxCell>
        <mxCell id="5lbM_MutUm4mmqYNjp2k-5" value="&lt;div&gt;Pi1B+&lt;/div&gt;&lt;div&gt;192.168.10.250&lt;br&gt;&lt;/div&gt;" style="shape=image;html=1;verticalAlign=top;verticalLabelPosition=bottom;labelBackgroundColor=#ffffff;imageAspect=0;aspect=fixed;image=https://cdn1.iconfinder.com/data/icons/fruit-136/64/Fruit_iconfree_Filled_Outline_raspberry-healthy-organic-food-fruit_icon-128.png" vertex="1" parent="1">
          <mxGeometry x="1030" y="240" width="50" height="50" as="geometry" />
        </mxCell>
      </root>
    </mxGraphModel>
  </diagram>
</mxfile>
